<?xml version="1.0" ?><svg width="512px" height="512px" viewBox="0 0 512 512" xmlns="http://www.w3.org/2000/svg"><defs><style>.cls-1{fill:#f19ec3;}.cls-2{fill:#cbeee1;}</style></defs><title/><g data-name="Layer 11" id="Layer_11"><rect class="cls-1" height="168" width="64" x="100" y="229"/><path class="cls-2" d="M362,215,336,405s36,9,47-11,30-144,30-144S421,211,362,215Z"/><path d="M405.5,213.42a45.74,45.74,0,0,0-29.61-11.08H304V150.43c0-21.82-6.36-37.55-18.94-46.78-19.9-14.64-47.32-6.29-48.49-5.88a8.21,8.21,0,0,0-5.74,7.8v58.06c0,18.94-9,35-26.88,47.8a106.17,106.17,0,0,1-28.38,14.22l-2,.48A16.87,16.87,0,0,0,159,217.8H105.89A16.93,16.93,0,0,0,89,234.69v156.2a16.93,16.93,0,0,0,16.89,16.89h53.27a17,17,0,0,0,13-6.09,46.46,46.46,0,0,0,33.78,14.77H348.05c31.39,0,51.43-16.41,55-45.14l18.4-114.14A48.14,48.14,0,0,0,405.5,213.42ZM159.58,390.89a.47.47,0,0,1-.48.48H105.89a.47.47,0,0,1-.48-.48V234.69a.47.47,0,0,1,.48-.48h53.27a.47.47,0,0,1,.48.48v156.2Zm245.51-136.3L386.76,368.93a.74.74,0,0,1-.07.34c-2.53,20.45-15.52,30.84-38.71,30.84H205.88a30.08,30.08,0,0,1-29.48-25.24,10.93,10.93,0,0,0-.34-1.44v-131l3.56-.82c.14,0,.21-.07.34-.07a118.69,118.69,0,0,0,33.24-16.41c22.36-15.87,34.13-37.13,34.13-61.48v-51.5c7.11-1.16,19.29-1.78,28.11,4.79,8.07,5.95,12.17,17.23,12.17,33.51v60a8.23,8.23,0,0,0,8.21,8.21h80.08a29.21,29.21,0,0,1,18.94,7.18A31.28,31.28,0,0,1,405.09,254.59Z"/></g></svg>